<svg xmlns="http://www.w3.org/2000/svg" xmlns:xlink="http://www.w3.org/1999/xlink" width="500" zoomAndPan="magnify" viewBox="0 0 375 374.999991" height="500" preserveAspectRatio="xMidYMid meet" version="1.0"><defs><g/><clipPath id="a01fde5205"><path d="M 179 110 L 281 110 L 281 273.535156 L 179 273.535156 Z M 179 110 " clip-rule="nonzero"/></clipPath><clipPath id="9b51e88152"><path d="M 106.957031 191.75 L 212.746094 191.75 L 212.746094 231.933594 L 106.957031 231.933594 Z M 106.957031 191.75 " clip-rule="nonzero"/></clipPath><clipPath id="19a5cf0a3f"><path d="M 124.207031 191.75 L 195.40625 191.75 C 204.933594 191.75 212.65625 199.476562 212.65625 209 L 212.65625 214.683594 C 212.65625 224.210938 204.933594 231.933594 195.40625 231.933594 L 124.207031 231.933594 C 114.679688 231.933594 106.957031 224.210938 106.957031 214.683594 L 106.957031 209 C 106.957031 199.476562 114.679688 191.75 124.207031 191.75 Z M 124.207031 191.75 " clip-rule="nonzero"/></clipPath></defs><rect x="-37.5" width="450" fill="#ffffff" y="-37.499999" height="449.999989" fill-opacity="1"/><rect x="-37.5" width="450" fill="#ffffff" y="-37.499999" height="449.999989" fill-opacity="1"/><g clip-path="url(#a01fde5205)"><path fill="#3dbdec" d="M 198.699219 114.570312 C 203.664062 114.570312 210.421875 113.015625 216.171875 112.710938 C 233.867188 111.761719 252.015625 114.816406 262.390625 128.632812 C 275.753906 146.4375 269.230469 174.90625 259.433594 192.945312 C 248.714844 212.675781 236.46875 224.441406 220.3125 236.550781 C 216.105469 239.703125 214.121094 242.027344 210.378906 242.507812 C 207.117188 239.21875 202.589844 237.183594 197.597656 237.183594 C 187.648438 237.183594 179.585938 245.246094 179.585938 255.195312 C 179.585938 265.144531 187.648438 273.207031 197.597656 273.207031 C 207.476562 273.207031 215.5 265.242188 215.59375 255.375 C 216.558594 254.808594 217.863281 254.066406 219.738281 252.964844 C 224.289062 250.296875 228.640625 247.65625 232.339844 244.890625 L 243.691406 235.558594 C 275.132812 208.867188 297.808594 153.675781 264.414062 122.894531 C 241.519531 101.785156 206.527344 114.363281 198.699219 114.570312 Z M 198.699219 114.570312 " fill-opacity="1" fill-rule="evenodd"/></g><path fill="#1f2b5b" d="M 191.171875 233.855469 C 182.183594 228.488281 177.535156 228.324219 165.328125 219.035156 C 138.550781 198.699219 123.210938 162.507812 144.222656 135.332031 C 160.363281 114.445312 196.371094 128.464844 203.046875 137.011719 C 204.023438 138.277344 204.65625 139.777344 205.109375 141.414062 C 204.378906 143.367188 203.980469 145.472656 203.980469 147.675781 C 203.980469 157.625 212.042969 165.6875 221.992188 165.6875 C 231.941406 165.6875 240.003906 157.625 240.003906 147.675781 C 240.003906 137.726562 231.941406 129.664062 221.992188 129.664062 C 220.398438 129.664062 218.84375 129.871094 217.371094 130.269531 C 215.953125 129.59375 214.082031 128.589844 211.480469 127.078125 C 202.589844 121.902344 193.9375 117.019531 182.035156 115.148438 C 168.410156 113 158.738281 114.554688 148.378906 120.292969 C 109.203125 142.046875 120.914062 186.300781 150.152344 212.816406 C 158.574219 220.464844 180.699219 231.707031 191.171875 233.855469 Z M 191.171875 233.855469 " fill-opacity="1" fill-rule="evenodd"/><path fill="#3dbdec" d="M 170.394531 161.917969 C 150.675781 161.917969 154.320312 157.832031 154.460938 178.167969 L 170.378906 178.511719 L 170.394531 194.433594 L 186.933594 194.402344 L 186.933594 178.785156 L 202.839844 178.441406 L 202.878906 161.972656 L 187.097656 161.890625 L 186.917969 145.996094 L 170.394531 145.996094 Z M 170.394531 161.917969 " fill-opacity="1" fill-rule="evenodd"/><g clip-path="url(#9b51e88152)"><g clip-path="url(#19a5cf0a3f)"><path fill="#ffffff" d="M 106.957031 191.75 L 212.589844 191.75 L 212.589844 231.933594 L 106.957031 231.933594 Z M 106.957031 191.75 " fill-opacity="1" fill-rule="nonzero"/></g></g><path stroke-linecap="butt" transform="matrix(0.916362, 0, 0, 0.916362, 91.258563, 187.678656)" fill="none" stroke-linejoin="miter" d="M 18.998386 45.489239 C 17.813333 45.489239 16.577127 45.403983 15.289768 45.237735 C 14.002409 45.080012 12.778992 44.837034 11.623778 44.513062 C 10.472828 44.184828 9.436973 43.801178 8.520476 43.349324 C 7.71481 42.965674 7.152124 42.458403 6.828152 41.818986 C 6.499918 41.183832 6.380561 40.510313 6.470079 39.802692 C 6.56386 39.086545 6.815364 38.455654 7.228854 37.914281 C 7.642343 37.364382 8.187979 36.997783 8.865761 36.810221 C 9.552068 36.614133 10.323631 36.707914 11.176187 37.091564 C 12.305823 37.624412 13.580394 38.042164 14.995637 38.336296 C 16.419405 38.63469 17.753654 38.783888 18.998386 38.783888 C 20.959264 38.783888 22.331879 38.523858 23.111967 38.003799 C 23.900581 37.479477 24.292757 36.835798 24.292757 36.07276 C 24.292757 35.38219 24.019939 34.832292 23.470041 34.423065 C 22.920142 34.009575 21.952492 33.655765 20.562826 33.35737 L 15.35371 32.240522 C 12.510436 31.656521 10.391835 30.620666 8.997907 29.137219 C 7.608241 27.653772 6.913408 25.744047 6.913408 23.399519 C 6.913408 21.856393 7.233116 20.458202 7.86827 19.200682 C 8.503424 17.943162 9.407134 16.868942 10.579398 15.978021 C 11.751662 15.0871 13.145591 14.400793 14.756921 13.914836 C 16.372514 13.424616 18.171407 13.177375 20.162124 13.177375 C 21.700988 13.177375 23.265427 13.347886 24.846918 13.688909 C 26.432672 14.029931 27.801024 14.541465 28.9605 15.227772 C 29.638282 15.581583 30.128501 16.071802 30.422633 16.694168 C 30.721028 17.316534 30.840385 17.960213 30.780706 18.625207 C 30.72529 19.2902 30.4951 19.874201 30.090136 20.381471 C 29.689435 20.880217 29.156588 21.212713 28.491594 21.378962 C 27.826601 21.54521 27.033724 21.434378 26.117226 21.042202 C 25.256145 20.662815 24.284232 20.372946 23.197223 20.185384 C 22.123003 19.993559 21.078622 19.895515 20.072606 19.895515 C 18.972809 19.895515 18.039261 20.019135 17.263435 20.274902 C 16.496135 20.51788 15.912134 20.880217 15.50717 21.357648 C 15.106469 21.830816 14.910381 22.376452 14.910381 22.998818 C 14.910381 23.616921 15.17041 24.145505 15.690469 24.580309 C 16.210528 25.006587 17.165391 25.368923 18.555057 25.667317 L 23.708756 26.784165 C 26.586132 27.406531 28.734573 28.429598 30.154078 29.853366 C 31.577846 31.272871 32.28973 33.118655 32.28973 35.399241 C 32.28973 36.938104 31.978547 38.332033 31.356182 39.576764 C 30.733816 40.817233 29.847158 41.878665 28.687682 42.752535 C 27.532469 43.630667 26.13854 44.304186 24.510159 44.781617 C 22.88604 45.254786 21.048782 45.489239 18.998386 45.489239 Z M 35.307778 45.39972 C 34.387017 45.39972 33.619717 45.186581 32.997351 44.760304 C 32.374986 44.3255 31.987073 43.732974 31.833613 42.982725 C 31.688678 42.22395 31.82935 41.367132 32.247102 40.420795 L 43.313276 16.604649 C 43.841861 15.449436 44.498329 14.601143 45.278417 14.068296 C 46.067031 13.531186 46.966478 13.266894 47.981019 13.266894 C 48.982772 13.266894 49.865167 13.531186 50.615416 14.068296 C 51.374191 14.601143 52.039184 15.449436 52.601871 16.604649 L 63.668045 40.420795 C 64.136951 41.367132 64.303199 42.228213 64.16679 43.004039 C 64.034644 43.771339 63.668045 44.363865 63.058468 44.781617 C 62.453153 45.195107 61.702904 45.39972 60.816246 45.39972 C 59.635456 45.39972 58.723222 45.135428 58.079542 44.598318 C 57.444388 44.061208 56.877438 43.204389 56.378693 42.027862 L 53.978749 36.375418 L 57.082052 38.643216 L 38.77768 38.643216 L 41.936399 36.375418 L 39.527929 42.027862 C 38.999344 43.204389 38.453708 44.061208 37.891022 44.598318 C 37.324072 45.135428 36.462991 45.39972 35.307778 45.39972 Z M 47.882975 22.205941 L 42.729275 34.50832 L 41.49307 32.381194 L 54.422078 32.381194 L 53.177346 34.50832 L 47.981019 22.205941 Z M 69.392957 45.39972 C 68.092809 45.39972 67.082531 45.041647 66.366384 44.316975 C 65.658763 43.588039 65.304952 42.556447 65.304952 41.22646 L 65.304952 17.440154 C 65.304952 16.080328 65.658763 15.048735 66.366384 14.341114 C 67.082531 13.624967 68.092809 13.266894 69.392957 13.266894 C 70.722944 13.266894 71.737485 13.624967 72.432318 14.341114 C 73.131414 15.048735 73.485225 16.080328 73.485225 17.440154 L 73.485225 25.752573 L 86.418496 25.752573 L 86.418496 17.440154 C 86.418496 16.080328 86.763781 15.048735 87.458614 14.341114 C 88.153446 13.624967 89.167988 13.266894 90.5065 13.266894 C 91.810911 13.266894 92.808401 13.624967 93.503234 14.341114 C 94.193804 15.048735 94.543352 16.080328 94.543352 17.440154 L 94.543352 41.22646 C 94.543352 42.556447 94.193804 43.588039 93.503234 44.316975 C 92.808401 45.041647 91.810911 45.39972 90.5065 45.39972 C 89.167988 45.39972 88.153446 45.041647 87.458614 44.316975 C 86.763781 43.588039 86.418496 42.556447 86.418496 41.22646 L 86.418496 32.470712 L 73.485225 32.470712 L 73.485225 41.22646 C 73.485225 42.556447 73.13994 43.588039 72.453632 44.316975 C 71.771588 45.041647 70.752783 45.39972 69.392957 45.39972 Z M 99.24946 45.39972 C 98.332962 45.39972 97.561399 45.186581 96.939034 44.760304 C 96.316668 44.3255 95.933018 43.732974 95.779558 42.982725 C 95.634623 42.22395 95.771032 41.367132 96.193047 40.420795 L 107.259221 16.604649 C 107.787806 15.449436 108.440011 14.601143 109.220099 14.068296 C 110.008713 13.531186 110.912423 13.266894 111.922701 13.266894 C 112.928717 13.266894 113.806849 13.531186 114.561361 14.068296 C 115.320136 14.601143 115.980867 15.449436 116.543553 16.604649 L 127.61399 40.420795 C 128.082896 41.367132 128.249144 42.228213 128.112735 43.004039 C 127.980589 43.771339 127.61399 44.363865 127.004413 44.781617 C 126.394835 45.195107 125.648849 45.39972 124.757928 45.39972 C 123.581401 45.39972 122.669167 45.135428 122.025487 44.598318 C 121.38607 44.061208 120.819121 43.204389 120.320375 42.027862 L 117.924694 36.375418 L 121.027997 38.643216 L 102.723624 38.643216 L 105.882344 36.375418 L 103.469611 42.027862 C 102.945289 43.204389 102.39539 44.061208 101.832704 44.598318 C 101.270017 45.135428 100.408936 45.39972 99.24946 45.39972 Z M 111.824657 22.205941 L 106.670958 34.50832 L 105.434752 32.381194 L 118.368023 32.381194 L 117.119029 34.50832 L 111.922701 22.205941 Z M 140.713509 45.39972 C 139.413362 45.39972 138.403083 45.041647 137.686936 44.316975 C 136.979315 43.588039 136.625504 42.569235 136.625504 41.269088 L 136.625504 20.338844 L 129.647335 20.338844 C 128.547539 20.338844 127.712034 20.048975 127.132296 19.469237 C 126.561084 18.893762 126.275477 18.071045 126.275477 17.009613 C 126.275477 15.909817 126.561084 15.078575 127.132296 14.511625 C 127.712034 13.948938 128.547539 13.667595 129.647335 13.667595 L 151.783946 13.667595 C 152.875217 13.667595 153.710722 13.948938 154.29046 14.511625 C 154.865935 15.078575 155.155804 15.909817 155.155804 17.009613 C 155.155804 18.071045 154.865935 18.893762 154.29046 19.469237 C 153.710722 20.048975 152.875217 20.338844 151.783946 20.338844 L 144.805777 20.338844 L 144.805777 41.269088 C 144.805777 42.569235 144.460492 43.588039 143.774184 44.316975 C 143.096403 45.041647 142.073336 45.39972 140.713509 45.39972 Z M 159.682875 44.999019 C 158.297472 44.999019 157.23604 44.636683 156.507105 43.916273 C 155.782432 43.183075 155.420096 42.138695 155.420096 40.778868 L 155.420096 17.887746 C 155.420096 16.527919 155.782432 15.483539 156.507105 14.763129 C 157.23604 14.029931 158.297472 13.667595 159.682875 13.667595 L 174.756061 13.667595 C 175.817493 13.667595 176.618895 13.931887 177.151743 14.468997 C 177.688853 15.006107 177.953145 15.773408 177.953145 16.779423 C 177.953145 17.815279 177.688853 18.608156 177.151743 19.158054 C 176.618895 19.707952 175.817493 19.98077 174.756061 19.98077 L 163.242295 19.98077 L 163.242295 25.935872 L 173.779884 25.935872 C 174.811477 25.935872 175.604354 26.204427 176.154252 26.741537 C 176.704151 27.270122 176.976969 28.054473 176.976969 29.094591 C 176.976969 30.130447 176.704151 30.914798 176.154252 31.447645 C 175.604354 31.97623 174.811477 32.240522 173.779884 32.240522 L 163.242295 32.240522 L 163.242295 38.685844 L 174.756061 38.685844 C 175.817493 38.685844 176.618895 38.958662 177.151743 39.50856 C 177.688853 40.058458 177.953145 40.838547 177.953145 41.844563 C 177.953145 42.884681 177.688853 43.673295 177.151743 44.206142 C 176.618895 44.734727 175.817493 44.999019 174.756061 44.999019 Z M 196.07848 45.489239 C 192.612841 45.489239 189.637422 44.824245 187.147959 43.489995 C 184.662759 42.155746 182.757297 40.271597 181.431572 37.850339 C 180.114374 35.420555 179.457906 32.573019 179.457906 29.311993 C 179.457906 26.882209 179.83303 24.67409 180.587542 22.691898 C 181.346317 20.705443 182.446114 19.000331 183.88267 17.585089 C 185.323489 16.157058 187.071229 15.070049 189.125888 14.315537 C 191.18481 13.556763 193.503762 13.177375 196.07848 13.177375 C 197.446832 13.177375 198.862075 13.335098 200.319945 13.646281 C 201.790604 13.957464 203.086489 14.422107 204.216125 15.044472 C 205.047367 15.492064 205.627105 16.054751 205.951076 16.736796 C 206.27931 17.414577 206.38588 18.113673 206.27931 18.82982 C 206.177003 19.541704 205.916974 20.176858 205.494959 20.739545 C 205.085732 21.297969 204.552885 21.673093 203.90068 21.869181 C 203.252737 22.065269 202.540853 21.967225 201.773553 21.57505 C 200.886895 21.16156 200.0045 20.850377 199.126367 20.632975 C 198.252498 20.407048 197.340263 20.296216 196.393926 20.296216 C 194.556668 20.296216 193.022068 20.641501 191.794388 21.336334 C 190.562445 22.031167 189.637422 23.045708 189.015056 24.384221 C 188.39269 25.718471 188.081507 27.35964 188.081507 29.311993 C 188.081507 31.264346 188.39269 32.918304 189.015056 34.269605 C 189.637422 35.616643 190.562445 36.63971 191.794388 37.338806 C 193.022068 38.033639 194.556668 38.383186 196.393926 38.383186 C 197.161226 38.383186 197.988205 38.285143 198.879126 38.089055 C 199.765784 37.892967 200.643917 37.59031 201.504998 37.17682 C 202.391656 36.79317 203.184533 36.690863 203.879366 36.874163 C 204.574199 37.048937 205.136885 37.402747 205.563163 37.935595 C 205.993704 38.464179 206.270785 39.078019 206.38588 39.781378 C 206.5095 40.476211 206.415719 41.162518 206.104536 41.844563 C 205.793353 42.522345 205.25198 43.072243 204.476155 43.489995 C 203.440299 44.112361 202.161466 44.602581 200.635391 44.956391 C 199.109316 45.310202 197.591767 45.489239 196.07848 45.489239 Z M 212.477391 45.39972 C 211.177243 45.39972 210.166964 45.041647 209.450818 44.316975 C 208.743196 43.588039 208.389386 42.556447 208.389386 41.22646 L 208.389386 17.440154 C 208.389386 16.080328 208.743196 15.048735 209.450818 14.341114 C 210.166964 13.624967 211.177243 13.266894 212.477391 13.266894 C 213.81164 13.266894 214.821919 13.624967 215.516752 14.341114 C 216.22011 15.048735 216.569658 16.080328 216.569658 17.440154 L 216.569658 25.752573 L 229.502929 25.752573 L 229.502929 17.440154 C 229.502929 16.080328 229.848214 15.048735 230.543047 14.341114 C 231.23788 13.624967 232.252421 13.266894 233.590934 13.266894 C 234.895344 13.266894 235.892835 13.624967 236.587667 14.341114 C 237.2825 15.048735 237.627786 16.080328 237.627786 17.440154 L 237.627786 41.22646 C 237.627786 42.556447 237.2825 43.588039 236.587667 44.316975 C 235.892835 45.041647 234.895344 45.39972 233.590934 45.39972 C 232.252421 45.39972 231.23788 45.041647 230.543047 44.316975 C 229.848214 43.588039 229.502929 42.556447 229.502929 41.22646 L 229.502929 32.470712 L 216.569658 32.470712 L 216.569658 41.22646 C 216.569658 42.556447 216.224373 43.588039 215.538066 44.316975 C 214.860284 45.041647 213.837217 45.39972 212.477391 45.39972 Z M 212.477391 45.39972 " stroke="#ffffff" stroke-width="10.890054" stroke-opacity="1" stroke-miterlimit="4"/><g fill="#3dbdec" fill-opacity="1"><g transform="translate(95.396512, 228.914961)"><g><path d="M 13.28125 0.453125 C 12.1875 0.453125 11.050781 0.375 9.875 0.21875 C 8.695312 0.0703125 7.578125 -0.144531 6.515625 -0.4375 C 5.453125 -0.738281 4.503906 -1.09375 3.671875 -1.5 C 2.929688 -1.851562 2.410156 -2.320312 2.109375 -2.90625 C 1.816406 -3.488281 1.707031 -4.101562 1.78125 -4.75 C 1.863281 -5.40625 2.09375 -5.984375 2.46875 -6.484375 C 2.851562 -6.992188 3.359375 -7.335938 3.984375 -7.515625 C 4.609375 -7.691406 5.316406 -7.601562 6.109375 -7.25 C 7.140625 -6.757812 8.304688 -6.378906 9.609375 -6.109375 C 10.910156 -5.835938 12.132812 -5.703125 13.28125 -5.703125 C 15.070312 -5.703125 16.328125 -5.9375 17.046875 -6.40625 C 17.765625 -6.882812 18.125 -7.476562 18.125 -8.1875 C 18.125 -8.8125 17.867188 -9.3125 17.359375 -9.6875 C 16.859375 -10.070312 15.972656 -10.398438 14.703125 -10.671875 L 9.9375 -11.6875 C 7.332031 -12.226562 5.390625 -13.175781 4.109375 -14.53125 C 2.835938 -15.894531 2.203125 -17.648438 2.203125 -19.796875 C 2.203125 -21.203125 2.492188 -22.484375 3.078125 -23.640625 C 3.660156 -24.796875 4.488281 -25.78125 5.5625 -26.59375 C 6.632812 -27.40625 7.910156 -28.035156 9.390625 -28.484375 C 10.867188 -28.929688 12.515625 -29.15625 14.328125 -29.15625 C 15.742188 -29.15625 17.175781 -29 18.625 -28.6875 C 20.082031 -28.375 21.335938 -27.90625 22.390625 -27.28125 C 23.015625 -26.957031 23.460938 -26.507812 23.734375 -25.9375 C 24.003906 -25.363281 24.113281 -24.769531 24.0625 -24.15625 C 24.007812 -23.550781 23.800781 -23.015625 23.4375 -22.546875 C 23.070312 -22.085938 22.582031 -21.785156 21.96875 -21.640625 C 21.351562 -21.492188 20.628906 -21.597656 19.796875 -21.953125 C 19.003906 -22.304688 18.113281 -22.566406 17.125 -22.734375 C 16.132812 -22.910156 15.175781 -23 14.25 -23 C 13.25 -23 12.394531 -22.882812 11.6875 -22.65625 C 10.976562 -22.425781 10.441406 -22.09375 10.078125 -21.65625 C 9.710938 -21.226562 9.53125 -20.726562 9.53125 -20.15625 C 9.53125 -19.582031 9.765625 -19.097656 10.234375 -18.703125 C 10.710938 -18.316406 11.585938 -17.988281 12.859375 -17.71875 L 17.59375 -16.6875 C 20.226562 -16.125 22.195312 -15.191406 23.5 -13.890625 C 24.800781 -12.585938 25.453125 -10.890625 25.453125 -8.796875 C 25.453125 -7.378906 25.164062 -6.097656 24.59375 -4.953125 C 24.019531 -3.816406 23.203125 -2.847656 22.140625 -2.046875 C 21.085938 -1.253906 19.8125 -0.640625 18.3125 -0.203125 C 16.820312 0.234375 15.144531 0.453125 13.28125 0.453125 Z M 13.28125 0.453125 "/></g></g></g><g fill="#3dbdec" fill-opacity="1"><g transform="translate(119.665499, 228.914961)"><g><path d="M 3.953125 0.359375 C 3.109375 0.359375 2.398438 0.164062 1.828125 -0.21875 C 1.265625 -0.613281 0.910156 -1.15625 0.765625 -1.84375 C 0.628906 -2.539062 0.753906 -3.320312 1.140625 -4.1875 L 11.28125 -26.015625 C 11.769531 -27.078125 12.375 -27.851562 13.09375 -28.34375 C 13.8125 -28.832031 14.628906 -29.078125 15.546875 -29.078125 C 16.472656 -29.078125 17.28125 -28.832031 17.96875 -28.34375 C 18.664062 -27.851562 19.273438 -27.078125 19.796875 -26.015625 L 29.921875 -4.1875 C 30.359375 -3.320312 30.515625 -2.535156 30.390625 -1.828125 C 30.273438 -1.128906 29.9375 -0.585938 29.375 -0.203125 C 28.820312 0.171875 28.140625 0.359375 27.328125 0.359375 C 26.234375 0.359375 25.394531 0.117188 24.8125 -0.359375 C 24.226562 -0.847656 23.707031 -1.640625 23.25 -2.734375 L 21.046875 -7.90625 L 23.90625 -5.828125 L 7.125 -5.828125 L 10.015625 -7.90625 L 7.8125 -2.734375 C 7.320312 -1.640625 6.816406 -0.847656 6.296875 -0.359375 C 5.785156 0.117188 5.003906 0.359375 3.953125 0.359375 Z M 15.46875 -20.890625 L 10.75 -9.609375 L 9.609375 -11.5625 L 21.453125 -11.5625 L 20.3125 -9.609375 L 15.546875 -20.890625 Z M 15.46875 -20.890625 "/></g></g></g><g fill="#3dbdec" fill-opacity="1"><g transform="translate(148.495212, 228.914961)"><g><path d="M 6.359375 0.359375 C 5.160156 0.359375 4.234375 0.03125 3.578125 -0.625 C 2.929688 -1.289062 2.609375 -2.238281 2.609375 -3.46875 L 2.609375 -25.25 C 2.609375 -26.5 2.929688 -27.445312 3.578125 -28.09375 C 4.234375 -28.75 5.160156 -29.078125 6.359375 -29.078125 C 7.578125 -29.078125 8.503906 -28.75 9.140625 -28.09375 C 9.773438 -27.445312 10.09375 -26.5 10.09375 -25.25 L 10.09375 -17.625 L 21.953125 -17.625 L 21.953125 -25.25 C 21.953125 -26.5 22.269531 -27.445312 22.90625 -28.09375 C 23.539062 -28.75 24.46875 -29.078125 25.6875 -29.078125 C 26.882812 -29.078125 27.800781 -28.75 28.4375 -28.09375 C 29.082031 -27.445312 29.40625 -26.5 29.40625 -25.25 L 29.40625 -3.46875 C 29.40625 -2.238281 29.082031 -1.289062 28.4375 -0.625 C 27.800781 0.03125 26.882812 0.359375 25.6875 0.359375 C 24.46875 0.359375 23.539062 0.03125 22.90625 -0.625 C 22.269531 -1.289062 21.953125 -2.238281 21.953125 -3.46875 L 21.953125 -11.484375 L 10.09375 -11.484375 L 10.09375 -3.46875 C 10.09375 -2.238281 9.78125 -1.289062 9.15625 -0.625 C 8.53125 0.03125 7.597656 0.359375 6.359375 0.359375 Z M 6.359375 0.359375 "/></g></g></g><g fill="#3dbdec" fill-opacity="1"><g transform="translate(178.261502, 228.914961)"><g><path d="M 3.953125 0.359375 C 3.109375 0.359375 2.398438 0.164062 1.828125 -0.21875 C 1.265625 -0.613281 0.910156 -1.15625 0.765625 -1.84375 C 0.628906 -2.539062 0.753906 -3.320312 1.140625 -4.1875 L 11.28125 -26.015625 C 11.769531 -27.078125 12.375 -27.851562 13.09375 -28.34375 C 13.8125 -28.832031 14.628906 -29.078125 15.546875 -29.078125 C 16.472656 -29.078125 17.28125 -28.832031 17.96875 -28.34375 C 18.664062 -27.851562 19.273438 -27.078125 19.796875 -26.015625 L 29.921875 -4.1875 C 30.359375 -3.320312 30.515625 -2.535156 30.390625 -1.828125 C 30.273438 -1.128906 29.9375 -0.585938 29.375 -0.203125 C 28.820312 0.171875 28.140625 0.359375 27.328125 0.359375 C 26.234375 0.359375 25.394531 0.117188 24.8125 -0.359375 C 24.226562 -0.847656 23.707031 -1.640625 23.25 -2.734375 L 21.046875 -7.90625 L 23.90625 -5.828125 L 7.125 -5.828125 L 10.015625 -7.90625 L 7.8125 -2.734375 C 7.320312 -1.640625 6.816406 -0.847656 6.296875 -0.359375 C 5.785156 0.117188 5.003906 0.359375 3.953125 0.359375 Z M 15.46875 -20.890625 L 10.75 -9.609375 L 9.609375 -11.5625 L 21.453125 -11.5625 L 20.3125 -9.609375 L 15.546875 -20.890625 Z M 15.46875 -20.890625 "/></g></g></g><g fill="#3dbdec" fill-opacity="1"><g transform="translate(207.091219, 228.914961)"><g><path d="M 13.109375 0.359375 C 11.910156 0.359375 10.984375 0.03125 10.328125 -0.625 C 9.679688 -1.289062 9.359375 -2.222656 9.359375 -3.421875 L 9.359375 -22.59375 L 2.96875 -22.59375 C 1.96875 -22.59375 1.203125 -22.859375 0.671875 -23.390625 C 0.140625 -23.921875 -0.125 -24.675781 -0.125 -25.65625 C -0.125 -26.65625 0.140625 -27.410156 0.671875 -27.921875 C 1.203125 -28.441406 1.96875 -28.703125 2.96875 -28.703125 L 23.25 -28.703125 C 24.25 -28.703125 25.015625 -28.441406 25.546875 -27.921875 C 26.078125 -27.410156 26.34375 -26.65625 26.34375 -25.65625 C 26.34375 -24.675781 26.078125 -23.921875 25.546875 -23.390625 C 25.015625 -22.859375 24.25 -22.59375 23.25 -22.59375 L 16.859375 -22.59375 L 16.859375 -3.421875 C 16.859375 -2.222656 16.546875 -1.289062 15.921875 -0.625 C 15.296875 0.03125 14.359375 0.359375 13.109375 0.359375 Z M 13.109375 0.359375 "/></g></g></g><g fill="#3dbdec" fill-opacity="1"><g transform="translate(231.07516, 228.914961)"><g><path d="M 6.515625 0 C 5.234375 0 4.257812 -0.332031 3.59375 -1 C 2.9375 -1.664062 2.609375 -2.625 2.609375 -3.875 L 2.609375 -24.84375 C 2.609375 -26.09375 2.9375 -27.046875 3.59375 -27.703125 C 4.257812 -28.367188 5.234375 -28.703125 6.515625 -28.703125 L 20.3125 -28.703125 C 21.289062 -28.703125 22.023438 -28.457031 22.515625 -27.96875 C 23.003906 -27.476562 23.25 -26.773438 23.25 -25.859375 C 23.25 -24.910156 23.003906 -24.179688 22.515625 -23.671875 C 22.023438 -23.171875 21.289062 -22.921875 20.3125 -22.921875 L 9.765625 -22.921875 L 9.765625 -17.46875 L 19.421875 -17.46875 C 20.367188 -17.46875 21.09375 -17.222656 21.59375 -16.734375 C 22.101562 -16.242188 22.359375 -15.523438 22.359375 -14.578125 C 22.359375 -13.628906 22.101562 -12.910156 21.59375 -12.421875 C 21.09375 -11.929688 20.367188 -11.6875 19.421875 -11.6875 L 9.765625 -11.6875 L 9.765625 -5.78125 L 20.3125 -5.78125 C 21.289062 -5.78125 22.023438 -5.53125 22.515625 -5.03125 C 23.003906 -4.53125 23.25 -3.816406 23.25 -2.890625 C 23.25 -1.941406 23.003906 -1.222656 22.515625 -0.734375 C 22.023438 -0.242188 21.289062 0 20.3125 0 Z M 6.515625 0 "/></g></g></g><g fill="#3dbdec" fill-opacity="1"><g transform="translate(253.837485, 228.914961)"><g><path d="M 17.109375 0.453125 C 13.929688 0.453125 11.203125 -0.15625 8.921875 -1.375 C 6.640625 -2.601562 4.894531 -4.328125 3.6875 -6.546875 C 2.476562 -8.773438 1.875 -11.382812 1.875 -14.375 C 1.875 -16.601562 2.21875 -18.625 2.90625 -20.4375 C 3.601562 -22.257812 4.609375 -23.820312 5.921875 -25.125 C 7.242188 -26.425781 8.847656 -27.421875 10.734375 -28.109375 C 12.617188 -28.804688 14.742188 -29.15625 17.109375 -29.15625 C 18.347656 -29.15625 19.640625 -29.007812 20.984375 -28.71875 C 22.328125 -28.4375 23.515625 -28.007812 24.546875 -27.4375 C 25.304688 -27.03125 25.835938 -26.515625 26.140625 -25.890625 C 26.441406 -25.265625 26.539062 -24.625 26.4375 -23.96875 C 26.34375 -23.320312 26.109375 -22.738281 25.734375 -22.21875 C 25.359375 -21.707031 24.867188 -21.363281 24.265625 -21.1875 C 23.671875 -21.007812 23.019531 -21.097656 22.3125 -21.453125 C 21.5 -21.835938 20.691406 -22.128906 19.890625 -22.328125 C 19.085938 -22.535156 18.253906 -22.640625 17.390625 -22.640625 C 15.703125 -22.640625 14.296875 -22.316406 13.171875 -21.671875 C 12.046875 -21.035156 11.195312 -20.109375 10.625 -18.890625 C 10.050781 -17.671875 9.765625 -16.164062 9.765625 -14.375 C 9.765625 -12.582031 10.050781 -11.066406 10.625 -9.828125 C 11.195312 -8.597656 12.046875 -7.660156 13.171875 -7.015625 C 14.296875 -6.378906 15.703125 -6.0625 17.390625 -6.0625 C 18.097656 -6.0625 18.859375 -6.148438 19.671875 -6.328125 C 20.484375 -6.503906 21.28125 -6.785156 22.0625 -7.171875 C 22.882812 -7.523438 23.613281 -7.617188 24.25 -7.453125 C 24.882812 -7.285156 25.398438 -6.957031 25.796875 -6.46875 C 26.191406 -5.976562 26.441406 -5.414062 26.546875 -4.78125 C 26.660156 -4.144531 26.570312 -3.515625 26.28125 -2.890625 C 26 -2.265625 25.503906 -1.765625 24.796875 -1.390625 C 23.847656 -0.816406 22.671875 -0.363281 21.265625 -0.03125 C 19.867188 0.289062 18.484375 0.453125 17.109375 0.453125 Z M 17.109375 0.453125 "/></g></g></g><g fill="#3dbdec" fill-opacity="1"><g transform="translate(279.613141, 228.914961)"><g><path d="M 6.359375 0.359375 C 5.160156 0.359375 4.234375 0.03125 3.578125 -0.625 C 2.929688 -1.289062 2.609375 -2.238281 2.609375 -3.46875 L 2.609375 -25.25 C 2.609375 -26.5 2.929688 -27.445312 3.578125 -28.09375 C 4.234375 -28.75 5.160156 -29.078125 6.359375 -29.078125 C 7.578125 -29.078125 8.503906 -28.75 9.140625 -28.09375 C 9.773438 -27.445312 10.09375 -26.5 10.09375 -25.25 L 10.09375 -17.625 L 21.953125 -17.625 L 21.953125 -25.25 C 21.953125 -26.5 22.269531 -27.445312 22.90625 -28.09375 C 23.539062 -28.75 24.46875 -29.078125 25.6875 -29.078125 C 26.882812 -29.078125 27.800781 -28.75 28.4375 -28.09375 C 29.082031 -27.445312 29.40625 -26.5 29.40625 -25.25 L 29.40625 -3.46875 C 29.40625 -2.238281 29.082031 -1.289062 28.4375 -0.625 C 27.800781 0.03125 26.882812 0.359375 25.6875 0.359375 C 24.46875 0.359375 23.539062 0.03125 22.90625 -0.625 C 22.269531 -1.289062 21.953125 -2.238281 21.953125 -3.46875 L 21.953125 -11.484375 L 10.09375 -11.484375 L 10.09375 -3.46875 C 10.09375 -2.238281 9.78125 -1.289062 9.15625 -0.625 C 8.53125 0.03125 7.597656 0.359375 6.359375 0.359375 Z M 6.359375 0.359375 "/></g></g></g></svg>